<svg width="25" height="20" viewBox="0 0 25 20" fill="none" xmlns="http://www.w3.org/2000/svg">
<rect width="25" height="20" fill="#F5F5F5"/>
<g id="1. &#237;&#153;&#136; &#237;&#153;&#148;&#235;&#169;&#180; (v2)">
<rect width="390" height="985" transform="translate(-109.3 -429.496)" fill="white"/>
<rect width="390" height="985" transform="translate(-109.3 -429.496)" fill="#F8F9FA"/>
<g id="Main">
<g id="Section - Icon Grid">
<mask id="path-1-inside-1_0_1" fill="white">
<path d="M-109.3 -140H280.7V89H-109.3V-140Z"/>
</mask>
<path d="M-109.3 -140H280.7V89H-109.3V-140Z" fill="white"/>
<path d="M280.7 89V88H-109.3V89V90H280.7V89Z" fill="#E2E5E8" mask="url(#path-1-inside-1_0_1)"/>
<g id="Container">
<g id="Background">
<rect x="-11.5" y="-14" width="48" height="48" rx="24" fill="#EFF6FF"/>
<g id="Container_2">
<path id="Icon" d="M1.25 20C0.895833 20 0.598958 19.8802 0.359375 19.6406C0.119792 19.401 0 19.1042 0 18.75C0 18.5417 0.0416667 18.349 0.125 18.1719C0.208333 17.9948 0.333333 17.8542 0.5 17.75L11.25 9.6875V7.5C11.25 7.14583 11.375 6.84896 11.625 6.60938C11.875 6.36979 12.1771 6.25 12.5312 6.25C13.0521 6.25 13.4896 6.0625 13.8438 5.6875C14.1979 5.3125 14.375 4.86458 14.375 4.34375C14.375 3.82292 14.1927 3.38542 13.8281 3.03125C13.4635 2.67708 13.0208 2.5 12.5 2.5C11.9792 2.5 11.5365 2.68229 11.1719 3.04688C10.8073 3.41146 10.625 3.85417 10.625 4.375H8.125C8.125 3.16667 8.55208 2.13542 9.40625 1.28125C10.2604 0.427083 11.2917 0 12.5 0C13.7083 0 14.7396 0.421875 15.5938 1.26562C16.4479 2.10938 16.875 3.13542 16.875 4.34375C16.875 5.32292 16.5885 6.19792 16.0156 6.96875C15.4427 7.73958 14.6875 8.27083 13.75 8.5625V9.6875L24.5 17.75C24.6667 17.8542 24.7917 17.9948 24.875 18.1719C24.9583 18.349 25 18.5417 25 18.75C25 19.1042 24.8802 19.401 24.6406 19.6406C24.401 19.8802 24.1042 20 23.75 20H1.25ZM5 17.5H20L12.5 11.875L5 17.5Z" fill="#3B82F6"/>
</g>
</g>
</g>
</g>
</g>
</g>
</svg>
