<svg width="22" height="22" viewBox="0 0 22 22" fill="none" xmlns="http://www.w3.org/2000/svg">
<rect width="22" height="22" fill="#F5F5F5"/>
<g id="1. &#237;&#153;&#136; &#237;&#153;&#148;&#235;&#169;&#180; (v2)">
<rect width="390" height="985" transform="translate(-184.348 -326.856)" fill="white"/>
<rect width="390" height="985" transform="translate(-184.348 -326.856)" fill="#F8F9FA"/>
<g id="Main">
<g id="Section - Icon Grid">
<mask id="path-1-inside-1_0_1" fill="white">
<path d="M-184.348 -37.3596H205.652V191.64H-184.348V-37.3596Z"/>
</mask>
<path d="M-184.348 -37.3596H205.652V191.64H-184.348V-37.3596Z" fill="white"/>
<path d="M205.652 191.64V190.64H-184.348V191.64V192.64H205.652V191.64Z" fill="#E2E5E8" mask="url(#path-1-inside-1_0_1)"/>
<g id="Container">
<g id="Background">
<rect x="-13.3482" y="-13.3596" width="48" height="48" rx="24" fill="#F0FDF4"/>
<g id="Container_2">
<path id="Icon" d="M10.3125 21.2809C9.625 21.2809 8.93229 21.2028 8.23438 21.0465C7.53646 20.8903 6.82292 20.6663 6.09375 20.3746C6.34375 17.8538 7.07292 15.4996 8.28125 13.3121C9.48958 11.1246 11.0417 9.19757 12.9375 7.5309C10.6458 8.69757 8.66146 10.2392 6.98438 12.1559C5.30729 14.0726 4.13542 16.2601 3.46875 18.7184C3.38542 18.6559 3.30729 18.5882 3.23438 18.5153C3.16146 18.4424 3.08333 18.3642 3 18.2809C2.02083 17.3017 1.27604 16.208 0.765625 14.9996C0.255208 13.7913 0 12.5309 0 11.2184C0 9.80173 0.28125 8.44757 0.84375 7.1559C1.40625 5.86423 2.1875 4.7184 3.1875 3.7184C4.875 2.0309 7.0625 0.931941 9.75 0.421524C12.4375 -0.0888928 16.2083 -0.135768 21.0625 0.280899C21.4375 5.26007 21.375 9.05694 20.875 11.6715C20.375 14.2861 19.2917 16.4267 17.625 18.0934C16.6042 19.1142 15.4635 19.9007 14.2031 20.4528C12.9427 21.0049 11.6458 21.2809 10.3125 21.2809Z" fill="#16A34A"/>
</g>
</g>
</g>
</g>
</g>
</g>
</svg>
