<svg width="20" height="16" viewBox="0 0 20 16" fill="none" xmlns="http://www.w3.org/2000/svg">
<rect width="20" height="16" fill="#F5F5F5"/>
<g id="1. &#237;&#153;&#136; &#237;&#153;&#148;&#235;&#169;&#180; (v2)">
<rect width="390" height="985" transform="translate(-111.8 -325.496)" fill="white"/>
<rect width="390" height="985" transform="translate(-111.8 -325.496)" fill="#F8F9FA"/>
<g id="Main">
<g id="Section - Icon Grid">
<mask id="path-1-inside-1_0_1" fill="white">
<path d="M-111.8 -36H278.2V193H-111.8V-36Z"/>
</mask>
<path d="M-111.8 -36H278.2V193H-111.8V-36Z" fill="white"/>
<path d="M278.2 193V192H-111.8V193V194H278.2V193Z" fill="#E2E5E8" mask="url(#path-1-inside-1_0_1)"/>
<g id="Container">
<g id="Background">
<rect x="-14" y="-12" width="48" height="48" rx="24" fill="#F3F4F6"/>
<g id="Container_2">
<path id="Icon" d="M2 0L4 4H7L5 0H7L9 4H12L10 0H12L14 4H17L15 0H18C18.55 0 19.0208 0.195833 19.4125 0.5875C19.8042 0.979167 20 1.45 20 2V14C20 14.55 19.8042 15.0208 19.4125 15.4125C19.0208 15.8042 18.55 16 18 16H2C1.45 16 0.979167 15.8042 0.5875 15.4125C0.195833 15.0208 0 14.55 0 14V2C0 1.45 0.195833 0.979167 0.5875 0.5875C0.979167 0.195833 1.45 0 2 0Z" fill="#374151"/>
</g>
</g>
</g>
</g>
</g>
</g>
</svg>
