<svg width="25" height="24" viewBox="0 0 25 24" fill="none" xmlns="http://www.w3.org/2000/svg">
<rect width="25" height="24" fill="#F5F5F5"/>
<g id="1. &#237;&#153;&#136; &#237;&#153;&#148;&#235;&#169;&#180; (v2)">
<rect width="390" height="985" transform="translate(-328.9 -325.621)" fill="white"/>
<rect width="390" height="985" transform="translate(-328.9 -325.621)" fill="#F8F9FA"/>
<g id="Main">
<g id="Section - Icon Grid">
<mask id="path-1-inside-1_0_1" fill="white">
<path d="M-328.9 -36.125H61.1V192.875H-328.9V-36.125Z"/>
</mask>
<path d="M-328.9 -36.125H61.1V192.875H-328.9V-36.125Z" fill="white"/>
<path d="M61.1 192.875V191.875H-328.9V192.875V193.875H61.1V192.875Z" fill="#E2E5E8" mask="url(#path-1-inside-1_0_1)"/>
<g id="Container">
<g id="Background">
<rect x="-11.5" y="-12.125" width="48" height="48" rx="24" fill="#FEFCE8"/>
<g id="Container_2">
<path id="Icon" d="M2.5 18.75V21.25H22.5V18.75H2.5ZM2.5 5H5.25C5.14583 4.8125 5.07812 4.61458 5.04688 4.40625C5.01562 4.19792 5 3.97917 5 3.75C5 2.70833 5.36458 1.82292 6.09375 1.09375C6.82292 0.364583 7.70833 0 8.75 0C9.375 0 9.95312 0.161458 10.4844 0.484375C11.0156 0.807292 11.4792 1.20833 11.875 1.6875L12.5 2.5L13.125 1.6875C13.5 1.1875 13.9583 0.78125 14.5 0.46875C15.0417 0.15625 15.625 0 16.25 0C17.2917 0 18.1771 0.364583 18.9062 1.09375C19.6354 1.82292 20 2.70833 20 3.75C20 3.97917 19.9844 4.19792 19.9531 4.40625C19.9219 4.61458 19.8542 4.8125 19.75 5H22.5C23.1875 5 23.776 5.24479 24.2656 5.73438C24.7552 6.22396 25 6.8125 25 7.5V21.25C25 21.9375 24.7552 22.526 24.2656 23.0156C23.776 23.5052 23.1875 23.75 22.5 23.75H2.5C1.8125 23.75 1.22396 23.5052 0.734375 23.0156C0.244792 22.526 0 21.9375 0 21.25V7.5C0 6.8125 0.244792 6.22396 0.734375 5.73438C1.22396 5.24479 1.8125 5 2.5 5ZM2.5 15H22.5V7.5H16.125L18.75 11.0625L16.75 12.5L12.5 6.75L8.25 12.5L6.25 11.0625L8.8125 7.5H2.5V15ZM8.75 5C9.10417 5 9.40104 4.88021 9.64062 4.64062C9.88021 4.40104 10 4.10417 10 3.75C10 3.39583 9.88021 3.09896 9.64062 2.85938C9.40104 2.61979 9.10417 2.5 8.75 2.5C8.39583 2.5 8.09896 2.61979 7.85938 2.85938C7.61979 3.09896 7.5 3.39583 7.5 3.75C7.5 4.10417 7.61979 4.40104 7.85938 4.64062C8.09896 4.88021 8.39583 5 8.75 5ZM16.25 5C16.6042 5 16.901 4.88021 17.1406 4.64062C17.3802 4.40104 17.5 4.10417 17.5 3.75C17.5 3.39583 17.3802 3.09896 17.1406 2.85938C16.901 2.61979 16.6042 2.5 16.25 2.5C15.8958 2.5 15.599 2.61979 15.3594 2.85938C15.1198 3.09896 15 3.39583 15 3.75C15 4.10417 15.1198 4.40104 15.3594 4.64062C15.599 4.88021 15.8958 5 16.25 5Z" fill="#EAB308"/>
</g>
</g>
</g>
</g>
</g>
</g>
</svg>
