<svg width="15" height="20" viewBox="0 0 15 20" fill="none" xmlns="http://www.w3.org/2000/svg">
<rect width="15" height="20" fill="#F5F5F5"/>
<g id="1. &#237;&#153;&#136; &#237;&#153;&#148;&#235;&#169;&#180; (v2)">
<rect width="390" height="985" transform="translate(-260.7 -323.496)" fill="white"/>
<rect width="390" height="985" transform="translate(-260.7 -323.496)" fill="#F8F9FA"/>
<g id="Main">
<g id="Section - Icon Grid">
<mask id="path-1-inside-1_0_1" fill="white">
<path d="M-260.7 -34H129.3V195H-260.7V-34Z"/>
</mask>
<path d="M-260.7 -34H129.3V195H-260.7V-34Z" fill="white"/>
<path d="M129.3 195V194H-260.7V195V196H129.3V195Z" fill="#E2E5E8" mask="url(#path-1-inside-1_0_1)"/>
<g id="Container">
<g id="Background">
<rect x="-16.5" y="-10" width="48" height="48" rx="24" fill="#FFF7ED"/>
<g id="Container_2">
<path id="Icon" d="M3 20V10.85C2.15 10.6167 1.4375 10.15 0.8625 9.45C0.2875 8.75 0 7.93333 0 7V0H2V7H3V0H5V7H6V0H8V7C8 7.93333 7.7125 8.75 7.1375 9.45C6.5625 10.15 5.85 10.6167 5 10.85V20H3ZM13 20V12H10V5C10 3.61667 10.4875 2.4375 11.4625 1.4625C12.4375 0.4875 13.6167 0 15 0V20H13Z" fill="#F97316"/>
</g>
</g>
</g>
</g>
</g>
</g>
</svg>
