<svg width="25" height="25" viewBox="0 0 25 25" fill="none" xmlns="http://www.w3.org/2000/svg">
<rect width="25" height="25" fill="#F5F5F5"/>
<g id="1. &#237;&#153;&#136; &#237;&#153;&#148;&#235;&#169;&#180; (v2)">
<rect width="390" height="985" transform="translate(-255.843 -427.14)" fill="white"/>
<rect width="390" height="985" transform="translate(-255.843 -427.14)" fill="#F8F9FA"/>
<g id="Main">
<g id="Section - Icon Grid">
<mask id="path-1-inside-1_0_1" fill="white">
<path d="M-255.843 -137.644H134.157V91.3559H-255.843V-137.644Z"/>
</mask>
<path d="M-255.843 -137.644H134.157V91.3559H-255.843V-137.644Z" fill="white"/>
<path d="M134.157 91.3559V90.3559H-255.843V91.3559V92.3559H134.157V91.3559Z" fill="#E2E5E8" mask="url(#path-1-inside-1_0_1)"/>
<g id="Container">
<g id="Background">
<rect x="-11.6435" y="-11.6441" width="48" height="48" rx="24" fill="#F0F9FF"/>
<g id="Container_2">
<path id="Icon" d="M0.34375 10.243L5.59375 4.99303C5.88542 4.70136 6.22917 4.49303 6.625 4.36803C7.02083 4.24303 7.42708 4.22219 7.84375 4.30553L9.46875 4.64928C8.34375 5.98261 7.45833 7.19094 6.8125 8.27428C6.16667 9.35761 5.54167 10.6701 4.9375 12.2118L0.34375 10.243ZM6.75 13.0868C7.22917 11.5868 7.88021 10.1701 8.70312 8.83678C9.52604 7.50344 10.5208 6.25344 11.6875 5.08678C13.5208 3.25344 15.6146 1.88365 17.9688 0.977402C20.3229 0.0711519 22.5208 -0.20489 24.5625 0.149277C24.9167 2.19094 24.6458 4.38886 23.75 6.74303C22.8542 9.09719 21.4896 11.1909 19.6562 13.0243C18.5104 14.1701 17.2604 15.1649 15.9062 16.0087C14.5521 16.8524 13.125 17.5139 11.625 17.993L6.75 13.0868ZM15.375 9.33678C15.8542 9.81594 16.4427 10.0555 17.1406 10.0555C17.8385 10.0555 18.4271 9.81594 18.9062 9.33678C19.3854 8.85761 19.625 8.26907 19.625 7.57115C19.625 6.87324 19.3854 6.28469 18.9062 5.80553C18.4271 5.32636 17.8385 5.08678 17.1406 5.08678C16.4427 5.08678 15.8542 5.32636 15.375 5.80553C14.8958 6.28469 14.6562 6.87324 14.6562 7.57115C14.6562 8.26907 14.8958 8.85761 15.375 9.33678ZM14.5 24.368L12.5 19.7743C14.0417 19.1701 15.3594 18.5451 16.4531 17.8993C17.5469 17.2534 18.7604 16.368 20.0938 15.243L20.4062 16.868C20.4896 17.2847 20.4688 17.6962 20.3438 18.1024C20.2188 18.5087 20.0104 18.8576 19.7188 19.1493L14.5 24.368ZM2.34375 17.0868C3.07292 16.3576 3.95833 15.9878 5 15.9774C6.04167 15.967 6.92708 16.3264 7.65625 17.0555C8.38542 17.7847 8.75 18.6701 8.75 19.7118C8.75 20.7534 8.38542 21.6389 7.65625 22.368C7.13542 22.8889 6.26562 23.3368 5.04688 23.7118C3.82812 24.0868 2.14583 24.4201 0 24.7118C0.291667 22.5659 0.625 20.8889 1 19.6805C1.375 18.4722 1.82292 17.6076 2.34375 17.0868Z" fill="#0EA5E9"/>
</g>
</g>
</g>
</g>
</g>
</g>
</svg>
