<svg width="20" height="25" viewBox="0 0 20 25" fill="none" xmlns="http://www.w3.org/2000/svg">
<rect width="20" height="25" fill="#F5F5F5"/>
<g id="1. &#237;&#153;&#136; &#237;&#153;&#148;&#235;&#169;&#180; (v2)">
<rect width="390" height="985" transform="translate(-331.4 -427.371)" fill="white"/>
<rect width="390" height="985" transform="translate(-331.4 -427.371)" fill="#F8F9FA"/>
<g id="Main">
<g id="Section - Icon Grid">
<mask id="path-1-inside-1_0_1" fill="white">
<path d="M-331.4 -137.875H58.6V91.125H-331.4V-137.875Z"/>
</mask>
<path d="M-331.4 -137.875H58.6V91.125H-331.4V-137.875Z" fill="white"/>
<path d="M58.6 91.125V90.125H-331.4V91.125V92.125H58.6V91.125Z" fill="#E2E5E8" mask="url(#path-1-inside-1_0_1)"/>
<g id="Container">
<g id="Background">
<rect x="-14" y="-11.875" width="48" height="48" rx="24" fill="#FAF5FF"/>
<g id="Container_2">
<path id="Icon" d="M0 24.25V16.8438C0 16.4271 0.0989583 16.0312 0.296875 15.6562C0.494792 15.2812 0.770833 14.9792 1.125 14.75L2.5 13.8438C2.64583 15.5938 2.875 17.0833 3.1875 18.3125C3.5 19.5417 3.98958 20.9062 4.65625 22.4062L0 24.25ZM6.53125 21.75C5.80208 20.375 5.26042 18.9167 4.90625 17.375C4.55208 15.8333 4.375 14.2396 4.375 12.5938C4.375 9.98958 4.89062 7.53646 5.92188 5.23438C6.95312 2.93229 8.3125 1.1875 10 0C11.6875 1.1875 13.0469 2.93229 14.0781 5.23438C15.1094 7.53646 15.625 9.98958 15.625 12.5938C15.625 14.2188 15.4479 15.7969 15.0938 17.3281C14.7396 18.8594 14.1979 20.3333 13.4688 21.75H6.53125ZM10 13C10.6875 13 11.276 12.7552 11.7656 12.2656C12.2552 11.776 12.5 11.1875 12.5 10.5C12.5 9.8125 12.2552 9.22396 11.7656 8.73438C11.276 8.24479 10.6875 8 10 8C9.3125 8 8.72396 8.24479 8.23438 8.73438C7.74479 9.22396 7.5 9.8125 7.5 10.5C7.5 11.1875 7.74479 11.776 8.23438 12.2656C8.72396 12.7552 9.3125 13 10 13ZM20 24.25L15.3438 22.4062C16.0104 20.9062 16.5 19.5417 16.8125 18.3125C17.125 17.0833 17.3542 15.5938 17.5 13.8438L18.875 14.75C19.2292 14.9792 19.5052 15.2812 19.7031 15.6562C19.901 16.0312 20 16.4271 20 16.8438V24.25Z" fill="#A855F7"/>
</g>
</g>
</g>
</g>
</g>
</g>
</svg>
