<svg width="20" height="25" viewBox="0 0 20 25" fill="none" xmlns="http://www.w3.org/2000/svg">
<rect width="20" height="25" fill="#F5F5F5"/>
<g id="1. &#237;&#153;&#136; &#237;&#153;&#148;&#235;&#169;&#180; (v2)">
<rect width="390" height="985" transform="translate(-38.6 -324.996)" fill="white"/>
<rect width="390" height="985" transform="translate(-38.6 -324.996)" fill="#F8F9FA"/>
<g id="Main">
<g id="Section - Icon Grid">
<mask id="path-1-inside-1_0_1" fill="white">
<path d="M-38.6 -35.5H351.4V193.5H-38.6V-35.5Z"/>
</mask>
<path d="M-38.6 -35.5H351.4V193.5H-38.6V-35.5Z" fill="white"/>
<path d="M351.4 193.5V192.5H-38.6V193.5V194.5H351.4V193.5Z" fill="#E2E5E8" mask="url(#path-1-inside-1_0_1)"/>
<g id="Container">
<g id="Overlay">
<rect x="-14" y="-11.5" width="48" height="48" rx="24" fill="#FF8000" fill-opacity="0.1"/>
<g id="Container_2">
<path id="Icon" d="M2.5 25C1.8125 25 1.22396 24.7552 0.734375 24.2656C0.244792 23.776 0 23.1875 0 22.5V7.5C0 6.8125 0.244792 6.22396 0.734375 5.73438C1.22396 5.24479 1.8125 5 2.5 5H5C5 3.625 5.48958 2.44792 6.46875 1.46875C7.44792 0.489583 8.625 0 10 0C11.375 0 12.5521 0.489583 13.5312 1.46875C14.5104 2.44792 15 3.625 15 5H17.5C18.1875 5 18.776 5.24479 19.2656 5.73438C19.7552 6.22396 20 6.8125 20 7.5V22.5C20 23.1875 19.7552 23.776 19.2656 24.2656C18.776 24.7552 18.1875 25 17.5 25H2.5ZM7.5 5H12.5C12.5 4.3125 12.2552 3.72396 11.7656 3.23438C11.276 2.74479 10.6875 2.5 10 2.5C9.3125 2.5 8.72396 2.74479 8.23438 3.23438C7.74479 3.72396 7.5 4.3125 7.5 5ZM13.75 11.25C14.1042 11.25 14.401 11.1302 14.6406 10.8906C14.8802 10.651 15 10.3542 15 10V7.5H12.5V10C12.5 10.3542 12.6198 10.651 12.8594 10.8906C13.099 11.1302 13.3958 11.25 13.75 11.25ZM6.25 11.25C6.60417 11.25 6.90104 11.1302 7.14062 10.8906C7.38021 10.651 7.5 10.3542 7.5 10V7.5H5V10C5 10.3542 5.11979 10.651 5.35938 10.8906C5.59896 11.1302 5.89583 11.25 6.25 11.25Z" fill="#FF8000"/>
</g>
</g>
</g>
</g>
</g>
</g>
</svg>
