<svg width="18" height="21" viewBox="0 0 18 21" fill="none" xmlns="http://www.w3.org/2000/svg">
<rect width="18" height="21" fill="#F5F5F5"/>
<g id="1. &#237;&#153;&#136; &#237;&#153;&#148;&#235;&#169;&#180; (v2)">
<rect width="390" height="985" transform="translate(-39.6 -424.996)" fill="white"/>
<rect width="390" height="985" transform="translate(-39.6 -424.996)" fill="#F8F9FA"/>
<g id="Main">
<g id="Section - Icon Grid">
<mask id="path-1-inside-1_0_1" fill="white">
<path d="M-39.6 -135.5H350.4V93.5H-39.6V-135.5Z"/>
</mask>
<path d="M-39.6 -135.5H350.4V93.5H-39.6V-135.5Z" fill="white"/>
<path d="M350.4 93.5V92.5H-39.6V93.5V94.5H350.4V93.5Z" fill="#E2E5E8" mask="url(#path-1-inside-1_0_1)"/>
<g id="Container">
<g id="Background">
<rect x="-15" y="-9.5" width="48" height="48" rx="24" fill="#FEF2F2"/>
<g id="Container_2">
<path id="Icon" d="M6 2V0H12V2H6ZM8 13H10V7H8V13ZM9 21C7.76667 21 6.60417 20.7625 5.5125 20.2875C4.42083 19.8125 3.46667 19.1667 2.65 18.35C1.83333 17.5333 1.1875 16.5792 0.7125 15.4875C0.2375 14.3958 0 13.2333 0 12C0 10.7667 0.2375 9.60417 0.7125 8.5125C1.1875 7.42083 1.83333 6.46667 2.65 5.65C3.46667 4.83333 4.42083 4.1875 5.5125 3.7125C6.60417 3.2375 7.76667 3 9 3C10.0333 3 11.025 3.16667 11.975 3.5C12.925 3.83333 13.8167 4.31667 14.65 4.95L16.05 3.55L17.45 4.95L16.05 6.35C16.6833 7.18333 17.1667 8.075 17.5 9.025C17.8333 9.975 18 10.9667 18 12C18 13.2333 17.7625 14.3958 17.2875 15.4875C16.8125 16.5792 16.1667 17.5333 15.35 18.35C14.5333 19.1667 13.5792 19.8125 12.4875 20.2875C11.3958 20.7625 10.2333 21 9 21Z" fill="#EF4444"/>
</g>
</g>
</g>
</g>
</g>
</g>
</svg>
