<svg width="101" height="23" viewBox="0 0 101 23" fill="none" xmlns="http://www.w3.org/2000/svg">
<rect width="101" height="23" fill="#F5F5F5"/>
<g id="1. &#237;&#153;&#136; &#237;&#153;&#148;&#235;&#169;&#180; (v2)">
<rect width="390" height="985" transform="translate(-16 -12)" fill="white"/>
<rect width="390" height="985" transform="translate(-16 -12)" fill="#F8F9FA"/>
<g id="Header - TopAppBar equivalent (Custom for Home)">
<mask id="path-1-inside-1_0_1" fill="white">
<path d="M-16 -12H374V85.496H-16V-12Z"/>
</mask>
<path d="M-16 -12H374V85.496H-16V-12Z" fill="white"/>
<path d="M374 85.496V84.496H-16V85.496V86.496H374V85.496Z" fill="#C3C5D9" mask="url(#path-1-inside-1_0_1)"/>
<g id="Container">
<g id="Container_2">
<g id="Container_3">
<g id="JnrYyU.tif">
<g id="&#234;&#183;&#184;&#235;&#163;&#185; 14">
<path id="&#237;&#140;&#168;&#236;&#138;&#164; 40" d="M96.3042 22.496C95.9642 21.866 95.6442 21.226 95.3042 20.616C95.1042 20.276 95.1542 20.1059 95.4942 19.8959C95.9064 19.7086 96.2595 19.412 96.5151 19.0383C96.7707 18.6645 96.919 18.228 96.9442 17.7759C96.9774 17.319 96.8291 16.8674 96.5314 16.5192C96.2337 16.171 95.8107 15.9542 95.3542 15.9159C95.2679 15.9059 95.1806 15.9059 95.0942 15.9159H87.3342C85.5842 15.9159 85.8442 16.1359 85.8142 14.3959C85.7952 13.8148 85.8834 13.2352 86.0742 12.686C86.3814 11.8502 86.9405 11.1304 87.6742 10.626C87.9142 10.446 88.0042 10.366 87.6742 10.126C87.094 9.63513 86.6166 9.0343 86.2696 8.35814C85.9226 7.68199 85.7129 6.94386 85.6524 6.18627C85.592 5.42868 85.6822 4.66663 85.9176 3.94402C86.153 3.22141 86.5291 2.55254 87.0242 1.97594C87.0942 1.89594 87.1542 1.81596 87.2242 1.74596C88.1212 0.867613 89.2865 0.314893 90.5342 0.175954C92.2302 -0.189717 94.0007 0.0546235 95.5342 0.865957C95.7917 1.07745 96.1188 1.18539 96.4516 1.16875C96.7844 1.15211 97.0991 1.01205 97.3342 0.77593C97.7087 0.473597 98.1504 0.265821 98.6221 0.170095C99.0937 0.0743689 99.5815 0.0935157 100.044 0.225942V2.72594C99.5242 2.90594 98.9442 2.72595 98.4142 2.98595C97.8842 3.24595 97.8142 3.29597 97.9942 3.81597C98.257 4.49548 98.3833 5.22012 98.3656 5.94848C98.348 6.67684 98.1869 7.39459 97.8915 8.0606C97.5961 8.7266 97.1723 9.32779 96.6443 9.82976C96.1162 10.3317 95.4943 10.7246 94.8142 10.986C94.4683 11.1187 94.1098 11.2159 93.7442 11.2759C92.8342 11.4559 91.9042 11.386 90.9842 11.506C90.6071 11.5274 90.2401 11.6361 89.9121 11.8235C89.5841 12.0109 89.3042 12.2719 89.0942 12.5859C88.9842 12.7659 88.8142 12.956 88.9442 13.176C89.0742 13.396 89.2842 13.2759 89.4542 13.2759C91.5242 13.2759 93.5942 13.2259 95.6542 13.2759C96.4587 13.2711 97.246 13.509 97.9132 13.9586C98.5804 14.4082 99.0965 15.0485 99.3942 15.7959C99.7941 16.7459 99.9021 17.7935 99.7044 18.805C99.5068 19.8166 99.0123 20.7464 98.2842 21.4759C97.9042 21.8659 97.4042 22.0859 97.0142 22.4759L96.3042 22.496ZM92.0042 8.49596C92.3805 8.52179 92.7582 8.47319 93.1156 8.35296C93.4731 8.23272 93.8034 8.04319 94.0876 7.79522C94.3718 7.54724 94.6043 7.24567 94.7719 6.90777C94.9395 6.56987 95.0388 6.20223 95.0642 5.82592C95.1006 5.37516 95.0289 4.92226 94.855 4.50481C94.681 4.08737 94.4099 3.71748 94.0642 3.42595C93.4249 2.9698 92.6502 2.74325 91.8659 2.78319C91.0816 2.82313 90.3338 3.12719 89.7442 3.64592C89.3247 4.05849 89.0438 4.59115 88.9402 5.17028C88.8365 5.74941 88.9153 6.34646 89.1656 6.8789C89.4159 7.41133 89.8254 7.85283 90.3374 8.14251C90.8495 8.43218 91.4389 8.55572 92.0242 8.49596H92.0042Z" fill="#5CB1D9"/>
<path id="&#237;&#140;&#168;&#236;&#138;&#164; 41" d="M45.6643 14.8559V21.6659C45.6786 21.7653 45.6529 21.8664 45.593 21.9469C45.533 22.0275 45.4436 22.0811 45.3442 22.0959H42.9143C42.8648 22.1029 42.8145 22.0998 42.7664 22.0869C42.7182 22.0739 42.6731 22.0513 42.6339 22.0205C42.5946 21.9897 42.562 21.9513 42.538 21.9075C42.514 21.8638 42.4991 21.8156 42.4942 21.7659C42.4844 21.7299 42.4844 21.6919 42.4942 21.6559V1.16593C42.4942 0.345927 42.4942 0.33591 43.3442 0.33591H44.7542C45.4042 0.33591 45.4442 0.335954 45.4642 1.00595C45.4497 1.07618 45.4492 1.14857 45.463 1.21897C45.4767 1.28936 45.5044 1.35632 45.5443 1.41593L46.1442 0.985934C48.2142 -0.504066 51.8542 -0.294051 53.5642 1.62595C54.57 2.77991 55.1304 4.25524 55.1442 5.78592C55.2442 7.42773 55.2442 9.0741 55.1442 10.7159C54.8742 13.8459 53.1442 15.8859 49.8142 16.0859C48.5783 16.1858 47.345 15.8651 46.3142 15.1759C46.1671 15.0667 46.0135 14.9666 45.8543 14.8759C45.8543 14.8759 45.7743 14.8659 45.6643 14.8559ZM45.6643 8.05594V10.0559C45.6643 12.1859 46.8142 13.2859 48.9642 13.2259C49.3306 13.2312 49.6945 13.1642 50.035 13.0289C50.3756 12.8936 50.6861 12.6925 50.9489 12.4371C51.2117 12.1817 51.4216 11.8771 51.5667 11.5406C51.7117 11.2041 51.789 10.8423 51.7943 10.4759V10.4759C51.7943 8.92592 51.7943 7.38591 51.7943 5.83591C51.7228 5.06731 51.3643 4.35388 50.7904 3.83768C50.2165 3.32148 49.4692 3.04042 48.6973 3.05051C47.9255 3.0606 47.1857 3.3611 46.6255 3.89212C46.0653 4.42315 45.7256 5.14572 45.6743 5.91593C45.6743 6.63593 45.6743 7.36592 45.6743 8.09592L45.6643 8.05594Z" fill="#BC3E33"/>
<path id="&#237;&#140;&#168;&#236;&#138;&#164; 42" d="M67.2943 15.836H66.5343C66.1543 15.836 65.8843 15.756 65.8643 15.296C65.8443 14.836 65.6043 15.1259 65.4643 15.2059C64.6704 15.7042 63.7744 16.017 62.8429 16.1209C61.9113 16.2248 60.9684 16.1171 60.0842 15.806C59.1177 15.5126 58.2647 14.9293 57.6405 14.1352C57.0163 13.3411 56.6511 12.3744 56.5943 11.366C56.3773 10.1964 56.5664 8.98771 57.1301 7.9402C57.6939 6.89269 58.5985 6.06915 59.6942 5.60597C60.5569 5.23575 61.4929 5.0676 62.4305 5.1144C63.3681 5.16119 64.2827 5.42172 65.1043 5.87599C65.2943 5.97599 65.4943 6.21598 65.6743 6.11598C65.8543 6.01598 65.7642 5.716 65.7642 5.506C65.7644 4.8161 65.4945 4.15352 65.0123 3.66011C64.5302 3.1667 63.8739 2.88166 63.1842 2.86598C61.7362 2.77752 60.2898 3.06332 58.9843 3.69594C58.5743 3.88594 58.3643 3.84597 58.2343 3.41597C58.0443 2.82597 57.8342 2.23596 57.6242 1.65596C57.5242 1.38596 57.5642 1.19595 57.8342 1.08595C60.1742 0.165954 62.5742 -0.424007 65.0642 0.375993C66.034 0.704173 66.8913 1.2998 67.5371 2.09425C68.1829 2.8887 68.591 3.84959 68.7143 4.86598C68.7743 5.43106 68.7743 6.00092 68.7143 6.566V14.976C68.7143 15.776 68.7142 15.786 67.8942 15.796L67.2943 15.836ZM62.7243 13.416C63.4679 13.4537 64.1969 13.1999 64.7564 12.7085C65.3158 12.2172 65.6616 11.527 65.7202 10.7847C65.7788 10.0425 65.5456 9.30659 65.0701 8.73354C64.5947 8.16049 63.9146 7.79542 63.1743 7.71596H62.7442C61.9979 7.67467 61.2652 7.92826 60.7041 8.42207C60.1429 8.91589 59.7982 9.61042 59.7442 10.356V10.546C59.7336 10.9137 59.7955 11.2799 59.9265 11.6237C60.0574 11.9675 60.2549 12.2822 60.5075 12.5496C60.7601 12.8171 61.0629 13.0321 61.3986 13.1825C61.7344 13.3329 62.0965 13.4156 62.4643 13.426L62.7243 13.416Z" fill="#D7983E"/>
<path id="&#237;&#140;&#168;&#236;&#138;&#164; 43" d="M25.6442 8.43598C25.6942 9.41679 25.6641 10.4001 25.5542 11.376C24.9742 14.476 22.9642 15.8859 20.0242 16.1559C18.9156 16.2576 17.798 16.1247 16.7442 15.7659C15.6683 15.4051 14.7305 14.7203 14.0591 13.8055C13.3878 12.8906 13.0157 11.7905 12.9942 10.6559C12.9942 8.99595 12.9142 7.33595 12.9942 5.65595C12.9927 4.22365 13.5441 2.84605 14.5334 1.81024C15.5226 0.77444 16.8734 0.160351 18.3042 0.0959501C19.5253 -0.0536399 20.7642 0.0657973 21.9342 0.445926C22.9865 0.803673 23.9047 1.47409 24.5658 2.36756C25.227 3.26102 25.5997 4.33497 25.6342 5.44593C25.6742 6.31593 25.6442 7.18598 25.6442 8.43598ZM16.2642 8.06598C16.2642 8.81598 16.2642 9.57593 16.2642 10.3259C16.2454 10.704 16.3019 11.0821 16.4303 11.4382C16.5588 11.7944 16.7566 12.1215 17.0124 12.4005C17.2682 12.6796 17.5769 12.9051 17.9205 13.064C18.2641 13.2228 18.6359 13.3118 19.0142 13.3259H19.2542C20.0358 13.3817 20.8083 13.1293 21.4063 12.6229C22.0043 12.1164 22.3804 11.3961 22.4542 10.616C22.4592 10.536 22.4592 10.4559 22.4542 10.376C22.4542 8.87598 22.4542 7.37596 22.4542 5.85596C22.469 5.15187 22.2262 4.46664 21.7713 3.92896C21.3165 3.39128 20.681 3.03817 19.9842 2.93598C19.5217 2.81669 19.0373 2.80953 18.5715 2.91516C18.1057 3.0208 17.6718 3.23614 17.306 3.54328C16.9402 3.85041 16.653 4.24046 16.4683 4.68097C16.2836 5.12149 16.2067 5.59974 16.2442 6.07593C16.2442 6.74593 16.2442 7.41593 16.2442 8.07593L16.2642 8.06598Z" fill="#572E2A"/>
<path id="&#237;&#140;&#168;&#236;&#138;&#164; 44" d="M37.1342 14.7859C36.9442 14.7859 36.8243 14.966 36.6743 15.066C35.797 15.7172 34.7547 16.1092 33.6658 16.1976C32.5769 16.286 31.485 16.0672 30.5142 15.566C29.697 15.1575 29 14.5436 28.4916 13.7845C27.9832 13.0254 27.6808 12.1472 27.6143 11.236C27.5094 10.2865 27.4793 9.3302 27.5242 8.37598C27.5242 5.94598 27.5242 3.51594 27.5242 1.08594C27.5242 0.385938 27.5242 0.345937 28.2742 0.335938H30.0842C30.7142 0.335938 30.7742 0.40595 30.7742 1.03595C30.7742 4.03595 30.7742 7.03595 30.7742 10.0359C30.7142 12.6959 33.0242 13.8659 35.2442 13.0359C35.7993 12.7854 36.265 12.3719 36.5794 11.8503C36.8937 11.3287 37.0419 10.7238 37.0042 10.116V1.11597C37.0042 0.345967 37.0043 0.325979 37.7843 0.315979H39.6542C40.0442 0.315979 40.1842 0.475967 40.1842 0.865967V15.296C40.1842 15.696 40.0042 15.8259 39.6342 15.8259C39.0442 15.8259 38.4543 15.8259 37.8643 15.8259C37.2743 15.8259 37.1542 15.6459 37.2042 15.1459C37.2198 15.0845 37.2216 15.0204 37.2095 14.9581C37.1974 14.8959 37.1717 14.8371 37.1342 14.7859V14.7859Z" fill="#572E2A"/>
<path id="&#237;&#140;&#168;&#236;&#138;&#164; 45" d="M74.1242 1.49599C74.943 0.76463 75.9518 0.279321 77.0342 0.0959656C80.9142 -0.434034 83.4542 1.87599 83.6842 5.30599C83.9142 8.73599 83.6842 11.976 83.7742 15.306C83.7742 15.716 83.5942 15.876 83.1842 15.866C82.5342 15.866 81.8742 15.866 81.1842 15.866C80.4942 15.866 80.4942 15.866 80.4942 15.176V5.97597C80.5322 5.26231 80.3035 4.56002 79.8526 4.00557C79.4017 3.45113 78.7607 3.08415 78.0543 2.97597C77.6654 2.87162 77.2594 2.84665 76.8607 2.90248C76.4619 2.95832 76.0785 3.09383 75.7332 3.30098C75.388 3.50814 75.0879 3.78267 74.851 4.10823C74.6141 4.4338 74.4452 4.8037 74.3542 5.19594C74.2744 5.49226 74.244 5.79976 74.2642 6.10598V15.206C74.2642 15.896 74.2643 15.916 73.5543 15.916H71.6442C71.2642 15.916 71.0942 15.796 71.0942 15.396C71.0942 10.5826 71.0942 5.76928 71.0942 0.955951C71.0942 0.545951 71.2642 0.385953 71.6642 0.395953H73.3342C74.0042 0.395953 74.0343 0.395966 74.0543 1.09597C74.0943 1.16597 74.1042 1.27599 74.1242 1.49599Z" fill="#95B14A"/>
<path id="&#237;&#140;&#168;&#236;&#138;&#164; 46" d="M0.0242222 7.85599C-0.0340378 6.77067 0.012862 5.68227 0.164237 4.60599C0.452475 3.40321 1.12277 2.32626 2.0747 1.53659C3.02663 0.746919 4.20888 0.287067 5.44421 0.225981C6.60014 0.108264 7.76794 0.213498 8.88421 0.535979C10.1372 0.887907 11.2096 1.70297 11.8842 2.81601C12.2342 3.38601 12.1842 3.51601 11.6042 3.81601C11.0242 4.11601 10.5542 4.33595 10.0442 4.63595C9.99108 4.691 9.92736 4.73478 9.85693 4.76468C9.78649 4.79458 9.71073 4.81003 9.63421 4.81003C9.55769 4.81003 9.48199 4.79458 9.41155 4.76468C9.34111 4.73478 9.27739 4.691 9.22423 4.63595C9.16807 4.58043 9.1268 4.51169 9.10424 4.436C8.78937 3.90062 8.31301 3.47866 7.74352 3.23074C7.17403 2.98282 6.54061 2.92168 5.9342 3.056C5.2582 3.09121 4.62057 3.3809 4.14941 3.86691C3.67824 4.35292 3.40846 4.99923 3.39422 5.67599C3.23926 7.42924 3.23926 9.1927 3.39422 10.946C3.44585 11.5641 3.71032 12.1452 4.14251 12.5902C4.5747 13.0351 5.14783 13.3164 5.76421 13.386C6.37682 13.5147 7.01396 13.4568 7.59331 13.2197C8.17266 12.9826 8.6676 12.5773 9.01421 12.056C9.29421 11.556 9.54421 11.526 10.0142 11.796C10.4842 12.066 11.0142 12.326 11.5842 12.596C12.1542 12.866 12.2242 13.016 11.8542 13.596C11.3727 14.3793 10.6793 15.0103 9.85424 15.416C8.83537 15.9297 7.71595 16.213 6.57537 16.2459C5.43479 16.2787 4.30094 16.0602 3.2542 15.606C2.29615 15.1967 1.4794 14.5151 0.905204 13.6458C0.331009 12.7766 0.0246666 11.7578 0.0242222 10.716C0.0242222 9.83597 0.0242222 8.97599 0.0242222 7.85599Z" fill="#572E2A"/>
</g>
</g>
</g>
</g>
</g>
</g>
</g>
</svg>
